<svg width="157" height="68" viewBox="0 0 157 68" fill="none" xmlns="http://www.w3.org/2000/svg">
<g filter="url(#filter0_d_6422_12)">
<path d="M11.0461 23.2751L6.96045 6.30379L21.7318 15.1037L14.5033 16.9894L11.0461 23.2751Z" fill="black"/>
<path d="M7.28212 5.76381L6 5L6.3493 6.45093L10.435 23.4223L10.8148 25L11.5968 23.5781L14.9236 17.5294L21.8904 15.712L23.3442 15.3328L22.0535 14.5638L7.28212 5.76381Z" stroke="white" stroke-width="1.5"/>
</g>
<g filter="url(#filter1_d_6422_12)">
<path d="M19 24C19 23.4477 19.4477 23 20 23H132C140.837 23 148 30.1634 148 39C148 47.8366 140.837 55 132 55H31C24.3726 55 19 49.6274 19 43V24Z" fill="#5F82FF"/>
<path d="M132 22.5C141.113 22.5 148.5 29.8873 148.5 39C148.5 48.1127 141.113 55.5 132 55.5H31C24.0964 55.5 18.5 49.9036 18.5 43V24C18.5 23.1716 19.1716 22.5 20 22.5H132Z" stroke="#5F82FF"/>
<g filter="url(#filter2_d_6422_12)">
<path d="M36.5371 40.8438C36.5371 40.6445 36.5059 40.4688 36.4434 40.3164C36.3848 40.1602 36.2793 40.0195 36.127 39.8945C35.9785 39.7695 35.7715 39.6504 35.5059 39.5371C35.2441 39.4238 34.9121 39.3086 34.5098 39.1914C34.0879 39.0664 33.707 38.9277 33.3672 38.7754C33.0273 38.6191 32.7363 38.4414 32.4941 38.2422C32.252 38.043 32.0664 37.8145 31.9375 37.5566C31.8086 37.2988 31.7441 37.0039 31.7441 36.6719C31.7441 36.3398 31.8125 36.0332 31.9492 35.752C32.0859 35.4707 32.2812 35.2266 32.5352 35.0195C32.793 34.8086 33.0996 34.6445 33.4551 34.5273C33.8105 34.4102 34.207 34.3516 34.6445 34.3516C35.2852 34.3516 35.8281 34.4746 36.2734 34.7207C36.7227 34.9629 37.0645 35.2812 37.2988 35.6758C37.5332 36.0664 37.6504 36.4844 37.6504 36.9297H36.5254C36.5254 36.6094 36.457 36.3262 36.3203 36.0801C36.1836 35.8301 35.9766 35.6348 35.6992 35.4941C35.4219 35.3496 35.0703 35.2773 34.6445 35.2773C34.2422 35.2773 33.9102 35.3379 33.6484 35.459C33.3867 35.5801 33.1914 35.7441 33.0625 35.9512C32.9375 36.1582 32.875 36.3945 32.875 36.6602C32.875 36.8398 32.9121 37.0039 32.9863 37.1523C33.0645 37.2969 33.1836 37.4316 33.3438 37.5566C33.5078 37.6816 33.7148 37.7969 33.9648 37.9023C34.2188 38.0078 34.5215 38.1094 34.873 38.207C35.3574 38.3438 35.7754 38.4961 36.127 38.6641C36.4785 38.832 36.7676 39.0215 36.9941 39.2324C37.2246 39.4395 37.3945 39.6758 37.5039 39.9414C37.6172 40.2031 37.6738 40.5 37.6738 40.832C37.6738 41.1797 37.6035 41.4941 37.4629 41.7754C37.3223 42.0566 37.1211 42.2969 36.8594 42.4961C36.5977 42.6953 36.2832 42.8496 35.916 42.959C35.5527 43.0645 35.1465 43.1172 34.6973 43.1172C34.3027 43.1172 33.9141 43.0625 33.5312 42.9531C33.1523 42.8438 32.8066 42.6797 32.4941 42.4609C32.1855 42.2422 31.9375 41.9727 31.75 41.6523C31.5664 41.3281 31.4746 40.9531 31.4746 40.5273H32.5996C32.5996 40.8203 32.6562 41.0723 32.7695 41.2832C32.8828 41.4902 33.0371 41.6621 33.2324 41.7988C33.4316 41.9355 33.6562 42.0371 33.9062 42.1035C34.1602 42.166 34.4238 42.1973 34.6973 42.1973C35.0918 42.1973 35.4258 42.1426 35.6992 42.0332C35.9727 41.9238 36.1797 41.7676 36.3203 41.5645C36.4648 41.3613 36.5371 41.1211 36.5371 40.8438ZM42.8301 41.5352V36.6602H43.9199V43H42.8828L42.8301 41.5352ZM43.0352 40.1992L43.4863 40.1875C43.4863 40.6094 43.4414 41 43.3516 41.3594C43.2656 41.7148 43.125 42.0234 42.9297 42.2852C42.7344 42.5469 42.4785 42.752 42.1621 42.9004C41.8457 43.0449 41.4609 43.1172 41.0078 43.1172C40.6992 43.1172 40.416 43.0723 40.1582 42.9824C39.9043 42.8926 39.6855 42.7539 39.502 42.5664C39.3184 42.3789 39.1758 42.1348 39.0742 41.834C38.9766 41.5332 38.9277 41.1719 38.9277 40.75V36.6602H40.0117V40.7617C40.0117 41.0469 40.043 41.2832 40.1055 41.4707C40.1719 41.6543 40.2598 41.8008 40.3691 41.9102C40.4824 42.0156 40.6074 42.0898 40.7441 42.1328C40.8848 42.1758 41.0293 42.1973 41.1777 42.1973C41.6387 42.1973 42.0039 42.1094 42.2734 41.9336C42.543 41.7539 42.7363 41.5137 42.8535 41.2129C42.9746 40.9082 43.0352 40.5703 43.0352 40.1992ZM49.2637 41.3184C49.2637 41.1621 49.2285 41.0176 49.1582 40.8848C49.0918 40.748 48.9531 40.625 48.7422 40.5156C48.5352 40.4023 48.2227 40.3047 47.8047 40.2227C47.4531 40.1484 47.1348 40.0605 46.8496 39.959C46.5684 39.8574 46.3281 39.7344 46.1289 39.5898C45.9336 39.4453 45.7832 39.2754 45.6777 39.0801C45.5723 38.8848 45.5195 38.6562 45.5195 38.3945C45.5195 38.1445 45.5742 37.9082 45.6836 37.6855C45.7969 37.4629 45.9551 37.2656 46.1582 37.0938C46.3652 36.9219 46.6133 36.7871 46.9023 36.6895C47.1914 36.5918 47.5137 36.543 47.8691 36.543C48.377 36.543 48.8105 36.6328 49.1699 36.8125C49.5293 36.9922 49.8047 37.2324 49.9961 37.5332C50.1875 37.8301 50.2832 38.1602 50.2832 38.5234H49.1992C49.1992 38.3477 49.1465 38.1777 49.041 38.0137C48.9395 37.8457 48.7891 37.707 48.5898 37.5977C48.3945 37.4883 48.1543 37.4336 47.8691 37.4336C47.5684 37.4336 47.3242 37.4805 47.1367 37.5742C46.9531 37.6641 46.8184 37.7793 46.7324 37.9199C46.6504 38.0605 46.6094 38.209 46.6094 38.3652C46.6094 38.4824 46.6289 38.5879 46.668 38.6816C46.7109 38.7715 46.7852 38.8555 46.8906 38.9336C46.9961 39.0078 47.1445 39.0781 47.3359 39.1445C47.5273 39.2109 47.7715 39.2773 48.0684 39.3438C48.5879 39.4609 49.0156 39.6016 49.3516 39.7656C49.6875 39.9297 49.9375 40.1309 50.1016 40.3691C50.2656 40.6074 50.3477 40.8965 50.3477 41.2363C50.3477 41.5137 50.2891 41.7676 50.1719 41.998C50.0586 42.2285 49.8926 42.4277 49.6738 42.5957C49.459 42.7598 49.2012 42.8887 48.9004 42.9824C48.6035 43.0723 48.2695 43.1172 47.8984 43.1172C47.3398 43.1172 46.8672 43.0176 46.4805 42.8184C46.0938 42.6191 45.8008 42.3613 45.6016 42.0449C45.4023 41.7285 45.3027 41.3945 45.3027 41.043H46.3926C46.4082 41.3398 46.4941 41.5762 46.6504 41.752C46.8066 41.9238 46.998 42.0469 47.2246 42.1211C47.4512 42.1914 47.6758 42.2266 47.8984 42.2266C48.1953 42.2266 48.4434 42.1875 48.6426 42.1094C48.8457 42.0312 49 41.9238 49.1055 41.7871C49.2109 41.6504 49.2637 41.4941 49.2637 41.3184ZM54.4258 36.6602V37.4922H50.998V36.6602H54.4258ZM52.1582 35.1191H53.2422V41.4297C53.2422 41.6445 53.2754 41.8066 53.3418 41.916C53.4082 42.0254 53.4941 42.0977 53.5996 42.1328C53.7051 42.168 53.8184 42.1855 53.9395 42.1855C54.0293 42.1855 54.123 42.1777 54.2207 42.1621C54.3223 42.1426 54.3984 42.127 54.4492 42.1152L54.4551 43C54.3691 43.0273 54.2559 43.0527 54.1152 43.0762C53.9785 43.1035 53.8125 43.1172 53.6172 43.1172C53.3516 43.1172 53.1074 43.0645 52.8848 42.959C52.6621 42.8535 52.4844 42.6777 52.3516 42.4316C52.2227 42.1816 52.1582 41.8457 52.1582 41.4238V35.1191ZM59.4355 41.916V38.6523C59.4355 38.4023 59.3848 38.1855 59.2832 38.002C59.1855 37.8145 59.0371 37.6699 58.8379 37.5684C58.6387 37.4668 58.3926 37.416 58.0996 37.416C57.8262 37.416 57.5859 37.4629 57.3789 37.5566C57.1758 37.6504 57.0156 37.7734 56.8984 37.9258C56.7852 38.0781 56.7285 38.2422 56.7285 38.418H55.6445C55.6445 38.1914 55.7031 37.9668 55.8203 37.7441C55.9375 37.5215 56.1055 37.3203 56.3242 37.1406C56.5469 36.957 56.8125 36.8125 57.1211 36.707C57.4336 36.5977 57.7812 36.543 58.1641 36.543C58.625 36.543 59.0312 36.6211 59.3828 36.7773C59.7383 36.9336 60.0156 37.1699 60.2148 37.4863C60.418 37.7988 60.5195 38.1914 60.5195 38.6641V41.6172C60.5195 41.8281 60.5371 42.0527 60.5723 42.291C60.6113 42.5293 60.668 42.7344 60.7422 42.9062V43H59.6113C59.5566 42.875 59.5137 42.709 59.4824 42.502C59.4512 42.291 59.4355 42.0957 59.4355 41.916ZM59.623 39.1562L59.6348 39.918H58.5391C58.2305 39.918 57.9551 39.9434 57.7129 39.9941C57.4707 40.041 57.2676 40.1133 57.1035 40.2109C56.9395 40.3086 56.8145 40.4316 56.7285 40.5801C56.6426 40.7246 56.5996 40.8945 56.5996 41.0898C56.5996 41.2891 56.6445 41.4707 56.7344 41.6348C56.8242 41.7988 56.959 41.9297 57.1387 42.0273C57.3223 42.1211 57.5469 42.168 57.8125 42.168C58.1445 42.168 58.4375 42.0977 58.6914 41.957C58.9453 41.8164 59.1465 41.6445 59.2949 41.4414C59.4473 41.2383 59.5293 41.041 59.541 40.8496L60.0039 41.3711C59.9766 41.5352 59.9023 41.7168 59.7812 41.916C59.6602 42.1152 59.498 42.3066 59.2949 42.4902C59.0957 42.6699 58.8574 42.8203 58.5801 42.9414C58.3066 43.0586 57.998 43.1172 57.6543 43.1172C57.2246 43.1172 56.8477 43.0332 56.5234 42.8652C56.2031 42.6973 55.9531 42.4727 55.7734 42.1914C55.5977 41.9062 55.5098 41.5879 55.5098 41.2363C55.5098 40.8965 55.5762 40.5977 55.709 40.3398C55.8418 40.0781 56.0332 39.8613 56.2832 39.6895C56.5332 39.5137 56.834 39.3809 57.1855 39.291C57.5371 39.2012 57.9297 39.1562 58.3633 39.1562H59.623ZM63.4023 36.6602V43H62.3125V36.6602H63.4023ZM62.2305 34.9785C62.2305 34.8027 62.2832 34.6543 62.3887 34.5332C62.498 34.4121 62.6582 34.3516 62.8691 34.3516C63.0762 34.3516 63.2344 34.4121 63.3438 34.5332C63.457 34.6543 63.5137 34.8027 63.5137 34.9785C63.5137 35.1465 63.457 35.291 63.3438 35.4121C63.2344 35.5293 63.0762 35.5879 62.8691 35.5879C62.6582 35.5879 62.498 35.5293 62.3887 35.4121C62.2832 35.291 62.2305 35.1465 62.2305 34.9785ZM66.2266 38.0137V43H65.1426V36.6602H66.168L66.2266 38.0137ZM65.9688 39.5898L65.5176 39.5723C65.5215 39.1387 65.5859 38.7383 65.7109 38.3711C65.8359 38 66.0117 37.6777 66.2383 37.4043C66.4648 37.1309 66.7344 36.9199 67.0469 36.7715C67.3633 36.6191 67.7129 36.543 68.0957 36.543C68.4082 36.543 68.6895 36.5859 68.9395 36.6719C69.1895 36.7539 69.4023 36.8867 69.5781 37.0703C69.7578 37.2539 69.8945 37.4922 69.9883 37.7852C70.082 38.0742 70.1289 38.4277 70.1289 38.8457V43H69.0391V38.834C69.0391 38.502 68.9902 38.2363 68.8926 38.0371C68.7949 37.834 68.6523 37.6875 68.4648 37.5977C68.2773 37.5039 68.0469 37.457 67.7734 37.457C67.5039 37.457 67.2578 37.5137 67.0352 37.627C66.8164 37.7402 66.627 37.8965 66.4668 38.0957C66.3105 38.2949 66.1875 38.5234 66.0977 38.7812C66.0117 39.0352 65.9688 39.3047 65.9688 39.5898ZM75.5137 41.916V38.6523C75.5137 38.4023 75.4629 38.1855 75.3613 38.002C75.2637 37.8145 75.1152 37.6699 74.916 37.5684C74.7168 37.4668 74.4707 37.416 74.1777 37.416C73.9043 37.416 73.6641 37.4629 73.457 37.5566C73.2539 37.6504 73.0938 37.7734 72.9766 37.9258C72.8633 38.0781 72.8066 38.2422 72.8066 38.418H71.7227C71.7227 38.1914 71.7812 37.9668 71.8984 37.7441C72.0156 37.5215 72.1836 37.3203 72.4023 37.1406C72.625 36.957 72.8906 36.8125 73.1992 36.707C73.5117 36.5977 73.8594 36.543 74.2422 36.543C74.7031 36.543 75.1094 36.6211 75.4609 36.7773C75.8164 36.9336 76.0938 37.1699 76.293 37.4863C76.4961 37.7988 76.5977 38.1914 76.5977 38.6641V41.6172C76.5977 41.8281 76.6152 42.0527 76.6504 42.291C76.6895 42.5293 76.7461 42.7344 76.8203 42.9062V43H75.6895C75.6348 42.875 75.5918 42.709 75.5605 42.502C75.5293 42.291 75.5137 42.0957 75.5137 41.916ZM75.7012 39.1562L75.7129 39.918H74.6172C74.3086 39.918 74.0332 39.9434 73.791 39.9941C73.5488 40.041 73.3457 40.1133 73.1816 40.2109C73.0176 40.3086 72.8926 40.4316 72.8066 40.5801C72.7207 40.7246 72.6777 40.8945 72.6777 41.0898C72.6777 41.2891 72.7227 41.4707 72.8125 41.6348C72.9023 41.7988 73.0371 41.9297 73.2168 42.0273C73.4004 42.1211 73.625 42.168 73.8906 42.168C74.2227 42.168 74.5156 42.0977 74.7695 41.957C75.0234 41.8164 75.2246 41.6445 75.373 41.4414C75.5254 41.2383 75.6074 41.041 75.6191 40.8496L76.082 41.3711C76.0547 41.5352 75.9805 41.7168 75.8594 41.916C75.7383 42.1152 75.5762 42.3066 75.373 42.4902C75.1738 42.6699 74.9355 42.8203 74.6582 42.9414C74.3848 43.0586 74.0762 43.1172 73.7324 43.1172C73.3027 43.1172 72.9258 43.0332 72.6016 42.8652C72.2812 42.6973 72.0312 42.4727 71.8516 42.1914C71.6758 41.9062 71.5879 41.5879 71.5879 41.2363C71.5879 40.8965 71.6543 40.5977 71.7871 40.3398C71.9199 40.0781 72.1113 39.8613 72.3613 39.6895C72.6113 39.5137 72.9121 39.3809 73.2637 39.291C73.6152 39.2012 74.0078 39.1562 74.4414 39.1562H75.7012ZM78.2969 34H79.3867V41.7695L79.293 43H78.2969V34ZM83.6699 39.7773V39.9004C83.6699 40.3613 83.6152 40.7891 83.5059 41.1836C83.3965 41.5742 83.2363 41.9141 83.0254 42.2031C82.8145 42.4922 82.5566 42.7168 82.252 42.877C81.9473 43.0371 81.5977 43.1172 81.2031 43.1172C80.8008 43.1172 80.4473 43.0488 80.1426 42.9121C79.8418 42.7715 79.5879 42.5703 79.3809 42.3086C79.1738 42.0469 79.0078 41.7305 78.8828 41.3594C78.7617 40.9883 78.6777 40.5703 78.6309 40.1055V39.5664C78.6777 39.0977 78.7617 38.6777 78.8828 38.3066C79.0078 37.9355 79.1738 37.6191 79.3809 37.3574C79.5879 37.0918 79.8418 36.8906 80.1426 36.7539C80.4434 36.6133 80.793 36.543 81.1914 36.543C81.5898 36.543 81.9434 36.6211 82.252 36.7773C82.5605 36.9297 82.8184 37.1484 83.0254 37.4336C83.2363 37.7188 83.3965 38.0605 83.5059 38.459C83.6152 38.8535 83.6699 39.293 83.6699 39.7773ZM82.5801 39.9004V39.7773C82.5801 39.4609 82.5508 39.1641 82.4922 38.8867C82.4336 38.6055 82.3398 38.3594 82.2109 38.1484C82.082 37.9336 81.9121 37.7656 81.7012 37.6445C81.4902 37.5195 81.2305 37.457 80.9219 37.457C80.6484 37.457 80.4102 37.5039 80.207 37.5977C80.0078 37.6914 79.8379 37.8184 79.6973 37.9785C79.5566 38.1348 79.4414 38.3145 79.3516 38.5176C79.2656 38.7168 79.2012 38.9238 79.1582 39.1387V40.5508C79.2207 40.8242 79.3223 41.0879 79.4629 41.3418C79.6074 41.5918 79.7988 41.7969 80.0371 41.957C80.2793 42.1172 80.5781 42.1973 80.9336 42.1973C81.2266 42.1973 81.4766 42.1387 81.6836 42.0215C81.8945 41.9004 82.0645 41.7344 82.1934 41.5234C82.3262 41.3125 82.4238 41.0684 82.4863 40.791C82.5488 40.5137 82.5801 40.2168 82.5801 39.9004ZM86.2188 34V43H85.1289V34H86.2188ZM90.5898 43.1172C90.1484 43.1172 89.748 43.043 89.3887 42.8945C89.0332 42.7422 88.7266 42.5293 88.4688 42.2559C88.2148 41.9824 88.0195 41.6582 87.8828 41.2832C87.7461 40.9082 87.6777 40.498 87.6777 40.0527V39.8066C87.6777 39.291 87.7539 38.832 87.9062 38.4297C88.0586 38.0234 88.2656 37.6797 88.5273 37.3984C88.7891 37.1172 89.0859 36.9043 89.418 36.7598C89.75 36.6152 90.0938 36.543 90.4492 36.543C90.9023 36.543 91.293 36.6211 91.6211 36.7773C91.9531 36.9336 92.2246 37.1523 92.4355 37.4336C92.6465 37.7109 92.8027 38.0391 92.9043 38.418C93.0059 38.793 93.0566 39.2031 93.0566 39.6484V40.1348H88.3223V39.25H91.9727V39.168C91.957 38.8867 91.8984 38.6133 91.7969 38.3477C91.6992 38.082 91.543 37.8633 91.3281 37.6914C91.1133 37.5195 90.8203 37.4336 90.4492 37.4336C90.2031 37.4336 89.9766 37.4863 89.7695 37.5918C89.5625 37.6934 89.3848 37.8457 89.2363 38.0488C89.0879 38.252 88.9727 38.5 88.8906 38.793C88.8086 39.0859 88.7676 39.4238 88.7676 39.8066V40.0527C88.7676 40.3535 88.8086 40.6367 88.8906 40.9023C88.9766 41.1641 89.0996 41.3945 89.2598 41.5938C89.4238 41.793 89.6211 41.9492 89.8516 42.0625C90.0859 42.1758 90.3516 42.2324 90.6484 42.2324C91.0312 42.2324 91.3555 42.1543 91.6211 41.998C91.8867 41.8418 92.1191 41.6328 92.3184 41.3711L92.9746 41.8926C92.8379 42.0996 92.6641 42.2969 92.4531 42.4844C92.2422 42.6719 91.9824 42.8242 91.6738 42.9414C91.3691 43.0586 91.0078 43.1172 90.5898 43.1172ZM103.768 38.752V41.875C103.662 42.0312 103.494 42.207 103.264 42.4023C103.033 42.5938 102.715 42.7617 102.309 42.9062C101.906 43.0469 101.387 43.1172 100.75 43.1172C100.23 43.1172 99.752 43.0273 99.3145 42.8477C98.8809 42.6641 98.5039 42.3984 98.1836 42.0508C97.8672 41.6992 97.6211 41.2734 97.4453 40.7734C97.2734 40.2695 97.1875 39.6992 97.1875 39.0625V38.4004C97.1875 37.7637 97.2617 37.1953 97.4102 36.6953C97.5625 36.1953 97.7852 35.7715 98.0781 35.4238C98.3711 35.0723 98.7305 34.8066 99.1562 34.627C99.582 34.4434 100.07 34.3516 100.621 34.3516C101.273 34.3516 101.818 34.4648 102.256 34.6914C102.697 34.9141 103.041 35.2227 103.287 35.6172C103.537 36.0117 103.697 36.4609 103.768 36.9648H102.637C102.586 36.6562 102.484 36.375 102.332 36.1211C102.184 35.8672 101.971 35.6641 101.693 35.5117C101.416 35.3555 101.059 35.2773 100.621 35.2773C100.227 35.2773 99.8848 35.3496 99.5957 35.4941C99.3066 35.6387 99.0684 35.8457 98.8809 36.1152C98.6934 36.3848 98.5527 36.7109 98.459 37.0938C98.3691 37.4766 98.3242 37.9082 98.3242 38.3887V39.0625C98.3242 39.5547 98.3809 39.9941 98.4941 40.3809C98.6113 40.7676 98.7773 41.0977 98.9922 41.3711C99.207 41.6406 99.4629 41.8457 99.7598 41.9863C100.061 42.127 100.393 42.1973 100.756 42.1973C101.158 42.1973 101.484 42.1641 101.734 42.0977C101.984 42.0273 102.18 41.9453 102.32 41.8516C102.461 41.7539 102.568 41.6621 102.643 41.5762V39.666H100.668V38.752H103.768ZM106.562 37.6562V43H105.479V36.6602H106.533L106.562 37.6562ZM108.543 36.625L108.537 37.6328C108.447 37.6133 108.361 37.6016 108.279 37.5977C108.201 37.5898 108.111 37.5859 108.01 37.5859C107.76 37.5859 107.539 37.625 107.348 37.7031C107.156 37.7812 106.994 37.8906 106.861 38.0312C106.729 38.1719 106.623 38.3398 106.545 38.5352C106.471 38.7266 106.422 38.9375 106.398 39.168L106.094 39.3438C106.094 38.9609 106.131 38.6016 106.205 38.2656C106.283 37.9297 106.402 37.6328 106.562 37.375C106.723 37.1133 106.926 36.9102 107.172 36.7656C107.422 36.6172 107.719 36.543 108.062 36.543C108.141 36.543 108.23 36.5527 108.332 36.5723C108.434 36.5879 108.504 36.6055 108.543 36.625ZM109.141 39.9004V39.7656C109.141 39.3086 109.207 38.8848 109.34 38.4941C109.473 38.0996 109.664 37.7578 109.914 37.4688C110.164 37.1758 110.467 36.9492 110.822 36.7891C111.178 36.625 111.576 36.543 112.018 36.543C112.463 36.543 112.863 36.625 113.219 36.7891C113.578 36.9492 113.883 37.1758 114.133 37.4688C114.387 37.7578 114.58 38.0996 114.713 38.4941C114.846 38.8848 114.912 39.3086 114.912 39.7656V39.9004C114.912 40.3574 114.846 40.7812 114.713 41.1719C114.58 41.5625 114.387 41.9043 114.133 42.1973C113.883 42.4863 113.58 42.7129 113.225 42.877C112.873 43.0371 112.475 43.1172 112.029 43.1172C111.584 43.1172 111.184 43.0371 110.828 42.877C110.473 42.7129 110.168 42.4863 109.914 42.1973C109.664 41.9043 109.473 41.5625 109.34 41.1719C109.207 40.7812 109.141 40.3574 109.141 39.9004ZM110.225 39.7656V39.9004C110.225 40.2168 110.262 40.5156 110.336 40.7969C110.41 41.0742 110.521 41.3203 110.67 41.5352C110.822 41.75 111.012 41.9199 111.238 42.0449C111.465 42.166 111.729 42.2266 112.029 42.2266C112.326 42.2266 112.586 42.166 112.809 42.0449C113.035 41.9199 113.223 41.75 113.371 41.5352C113.52 41.3203 113.631 41.0742 113.705 40.7969C113.783 40.5156 113.822 40.2168 113.822 39.9004V39.7656C113.822 39.4531 113.783 39.1582 113.705 38.8809C113.631 38.5996 113.518 38.3516 113.365 38.1367C113.217 37.918 113.029 37.7461 112.803 37.6211C112.58 37.4961 112.318 37.4336 112.018 37.4336C111.721 37.4336 111.459 37.4961 111.232 37.6211C111.01 37.7461 110.822 37.918 110.67 38.1367C110.521 38.3516 110.41 38.5996 110.336 38.8809C110.262 39.1582 110.225 39.4531 110.225 39.7656ZM117.877 41.875L119.506 36.6602H120.221L120.08 37.6973L118.422 43H117.725L117.877 41.875ZM116.781 36.6602L118.17 41.9336L118.27 43H117.537L115.697 36.6602H116.781ZM121.779 41.8926L123.104 36.6602H124.182L122.342 43H121.615L121.779 41.8926ZM120.379 36.6602L121.973 41.7871L122.154 43H121.463L119.758 37.6855L119.617 36.6602H120.379ZM127.949 36.6602V37.4922H124.521V36.6602H127.949ZM125.682 35.1191H126.766V41.4297C126.766 41.6445 126.799 41.8066 126.865 41.916C126.932 42.0254 127.018 42.0977 127.123 42.1328C127.229 42.168 127.342 42.1855 127.463 42.1855C127.553 42.1855 127.646 42.1777 127.744 42.1621C127.846 42.1426 127.922 42.127 127.973 42.1152L127.979 43C127.893 43.0273 127.779 43.0527 127.639 43.0762C127.502 43.1035 127.336 43.1172 127.141 43.1172C126.875 43.1172 126.631 43.0645 126.408 42.959C126.186 42.8535 126.008 42.6777 125.875 42.4316C125.746 42.1816 125.682 41.8457 125.682 41.4238V35.1191ZM130.305 34V43H129.221V34H130.305ZM130.047 39.5898L129.596 39.5723C129.6 39.1387 129.664 38.7383 129.789 38.3711C129.914 38 130.09 37.6777 130.316 37.4043C130.543 37.1309 130.812 36.9199 131.125 36.7715C131.441 36.6191 131.791 36.543 132.174 36.543C132.486 36.543 132.768 36.5859 133.018 36.6719C133.268 36.7539 133.48 36.8867 133.656 37.0703C133.836 37.2539 133.973 37.4922 134.066 37.7852C134.16 38.0742 134.207 38.4277 134.207 38.8457V43H133.117V38.834C133.117 38.502 133.068 38.2363 132.971 38.0371C132.873 37.834 132.73 37.6875 132.543 37.5977C132.355 37.5039 132.125 37.457 131.852 37.457C131.582 37.457 131.336 37.5137 131.113 37.627C130.895 37.7402 130.705 37.8965 130.545 38.0957C130.389 38.2949 130.266 38.5234 130.176 38.7812C130.09 39.0352 130.047 39.3047 130.047 39.5898Z" fill="white"/>
</g>
</g>
<defs>
<filter id="filter0_d_6422_12" x="0.854004" y="0.444305" width="28.4141" height="31.6138" filterUnits="userSpaceOnUse" color-interpolation-filters="sRGB">
<feFlood flood-opacity="0" result="BackgroundImageFix"/>
<feColorMatrix in="SourceAlpha" type="matrix" values="0 0 0 0 0 0 0 0 0 0 0 0 0 0 0 0 0 0 127 0" result="hardAlpha"/>
<feOffset dy="1"/>
<feGaussianBlur stdDeviation="2"/>
<feComposite in2="hardAlpha" operator="out"/>
<feColorMatrix type="matrix" values="0 0 0 0 0 0 0 0 0 0 0 0 0 0 0 0 0 0 0.32 0"/>
<feBlend mode="normal" in2="BackgroundImageFix" result="effect1_dropShadow_6422_12"/>
<feBlend mode="normal" in="SourceGraphic" in2="effect1_dropShadow_6422_12" result="shape"/>
</filter>
<filter id="filter1_d_6422_12" x="10" y="18" width="147" height="50" filterUnits="userSpaceOnUse" color-interpolation-filters="sRGB">
<feFlood flood-opacity="0" result="BackgroundImageFix"/>
<feColorMatrix in="SourceAlpha" type="matrix" values="0 0 0 0 0 0 0 0 0 0 0 0 0 0 0 0 0 0 127 0" result="hardAlpha"/>
<feOffset dy="4"/>
<feGaussianBlur stdDeviation="4"/>
<feComposite in2="hardAlpha" operator="out"/>
<feColorMatrix type="matrix" values="0 0 0 0 0.0509804 0 0 0 0 0.6 0 0 0 0 1 0 0 0 0.32 0"/>
<feBlend mode="normal" in2="BackgroundImageFix" result="effect1_dropShadow_6422_12"/>
<feBlend mode="normal" in="SourceGraphic" in2="effect1_dropShadow_6422_12" result="shape"/>
</filter>
<filter id="filter2_d_6422_12" x="29.4746" y="32.25" width="106.732" height="13.1172" filterUnits="userSpaceOnUse" color-interpolation-filters="sRGB">
<feFlood flood-opacity="0" result="BackgroundImageFix"/>
<feColorMatrix in="SourceAlpha" type="matrix" values="0 0 0 0 0 0 0 0 0 0 0 0 0 0 0 0 0 0 127 0" result="hardAlpha"/>
<feOffset dy="0.25"/>
<feGaussianBlur stdDeviation="1"/>
<feComposite in2="hardAlpha" operator="out"/>
<feColorMatrix type="matrix" values="0 0 0 0 0 0 0 0 0 0 0 0 0 0 0 0 0 0 0.35 0"/>
<feBlend mode="normal" in2="BackgroundImageFix" result="effect1_dropShadow_6422_12"/>
<feBlend mode="normal" in="SourceGraphic" in2="effect1_dropShadow_6422_12" result="shape"/>
</filter>
</defs>
</svg>
