<svg width="180" height="62" viewBox="0 0 180 62" fill="none" xmlns="http://www.w3.org/2000/svg">
<g filter="url(#filter0_d_6422_156)">
<path d="M19 17C19 10.3726 24.3726 5 31 5H156C164.837 5 172 12.1634 172 21C172 29.8366 164.837 37 156 37H20C19.4477 37 19 36.5523 19 36V17Z" fill="#5F82FF"/>
<path d="M156 4.5C165.113 4.5 172.5 11.8873 172.5 21C172.5 30.1127 165.113 37.5 156 37.5H20C19.1716 37.5 18.5 36.8284 18.5 36V17C18.5 10.0964 24.0964 4.5 31 4.5H156Z" stroke="#5F82FF"/>
<path d="M37.1406 22.2871H38.2656C38.207 22.8262 38.0527 23.3086 37.8027 23.7344C37.5527 24.1602 37.1992 24.498 36.7422 24.748C36.2852 24.9941 35.7148 25.1172 35.0312 25.1172C34.5312 25.1172 34.0762 25.0234 33.666 24.8359C33.2598 24.6484 32.9102 24.3828 32.6172 24.0391C32.3242 23.6914 32.0977 23.2754 31.9375 22.791C31.7812 22.3027 31.7031 21.7598 31.7031 21.1621V20.3125C31.7031 19.7148 31.7812 19.1738 31.9375 18.6895C32.0977 18.2012 32.3262 17.7832 32.623 17.4355C32.9238 17.0879 33.2852 16.8203 33.707 16.6328C34.1289 16.4453 34.6035 16.3516 35.1309 16.3516C35.7754 16.3516 36.3203 16.4727 36.7656 16.7148C37.2109 16.957 37.5566 17.293 37.8027 17.7227C38.0527 18.1484 38.207 18.6426 38.2656 19.2051H37.1406C37.0859 18.8066 36.9844 18.4648 36.8359 18.1797C36.6875 17.8906 36.4766 17.668 36.2031 17.5117C35.9297 17.3555 35.5723 17.2773 35.1309 17.2773C34.752 17.2773 34.418 17.3496 34.1289 17.4941C33.8438 17.6387 33.6035 17.8438 33.4082 18.1094C33.2168 18.375 33.0723 18.6934 32.9746 19.0645C32.877 19.4355 32.8281 19.8477 32.8281 20.3008V21.1621C32.8281 21.5801 32.8711 21.9727 32.957 22.3398C33.0469 22.707 33.1816 23.0293 33.3613 23.3066C33.541 23.584 33.7695 23.8027 34.0469 23.9629C34.3242 24.1191 34.6523 24.1973 35.0312 24.1973C35.5117 24.1973 35.8945 24.1211 36.1797 23.9688C36.4648 23.8164 36.6797 23.5977 36.8242 23.3125C36.9727 23.0273 37.0781 22.6855 37.1406 22.2871ZM39.3555 21.9004V21.7656C39.3555 21.3086 39.4219 20.8848 39.5547 20.4941C39.6875 20.0996 39.8789 19.7578 40.1289 19.4688C40.3789 19.1758 40.6816 18.9492 41.0371 18.7891C41.3926 18.625 41.791 18.543 42.2324 18.543C42.6777 18.543 43.0781 18.625 43.4336 18.7891C43.793 18.9492 44.0977 19.1758 44.3477 19.4688C44.6016 19.7578 44.7949 20.0996 44.9277 20.4941C45.0605 20.8848 45.127 21.3086 45.127 21.7656V21.9004C45.127 22.3574 45.0605 22.7812 44.9277 23.1719C44.7949 23.5625 44.6016 23.9043 44.3477 24.1973C44.0977 24.4863 43.7949 24.7129 43.4395 24.877C43.0879 25.0371 42.6895 25.1172 42.2441 25.1172C41.7988 25.1172 41.3984 25.0371 41.043 24.877C40.6875 24.7129 40.3828 24.4863 40.1289 24.1973C39.8789 23.9043 39.6875 23.5625 39.5547 23.1719C39.4219 22.7812 39.3555 22.3574 39.3555 21.9004ZM40.4395 21.7656V21.9004C40.4395 22.2168 40.4766 22.5156 40.5508 22.7969C40.625 23.0742 40.7363 23.3203 40.8848 23.5352C41.0371 23.75 41.2266 23.9199 41.4531 24.0449C41.6797 24.166 41.9434 24.2266 42.2441 24.2266C42.541 24.2266 42.8008 24.166 43.0234 24.0449C43.25 23.9199 43.4375 23.75 43.5859 23.5352C43.7344 23.3203 43.8457 23.0742 43.9199 22.7969C43.998 22.5156 44.0371 22.2168 44.0371 21.9004V21.7656C44.0371 21.4531 43.998 21.1582 43.9199 20.8809C43.8457 20.5996 43.7324 20.3516 43.5801 20.1367C43.4316 19.918 43.2441 19.7461 43.0176 19.6211C42.7949 19.4961 42.5332 19.4336 42.2324 19.4336C41.9355 19.4336 41.6738 19.4961 41.4473 19.6211C41.2246 19.7461 41.0371 19.918 40.8848 20.1367C40.7363 20.3516 40.625 20.5996 40.5508 20.8809C40.4766 21.1582 40.4395 21.4531 40.4395 21.7656ZM47.5645 19.9199V25H46.4746V18.6602H47.5059L47.5645 19.9199ZM47.3418 21.5898L46.8379 21.5723C46.8418 21.1387 46.8984 20.7383 47.0078 20.3711C47.1172 20 47.2793 19.6777 47.4941 19.4043C47.709 19.1309 47.9766 18.9199 48.2969 18.7715C48.6172 18.6191 48.9883 18.543 49.4102 18.543C49.707 18.543 49.9805 18.5859 50.2305 18.6719C50.4805 18.7539 50.6973 18.8848 50.8809 19.0645C51.0645 19.2441 51.207 19.4746 51.3086 19.7559C51.4102 20.0371 51.4609 20.377 51.4609 20.7754V25H50.377V20.8281C50.377 20.4961 50.3203 20.2305 50.207 20.0312C50.0977 19.832 49.9414 19.6875 49.7383 19.5977C49.5352 19.5039 49.2969 19.457 49.0234 19.457C48.7031 19.457 48.4355 19.5137 48.2207 19.627C48.0059 19.7402 47.834 19.8965 47.7051 20.0957C47.5762 20.2949 47.4824 20.5234 47.4238 20.7812C47.3691 21.0352 47.3418 21.3047 47.3418 21.5898ZM51.4492 20.9922L50.7227 21.2148C50.7266 20.8672 50.7832 20.5332 50.8926 20.2129C51.0059 19.8926 51.168 19.6074 51.3789 19.3574C51.5938 19.1074 51.8574 18.9102 52.1699 18.7656C52.4824 18.6172 52.8398 18.543 53.2422 18.543C53.582 18.543 53.8828 18.5879 54.1445 18.6777C54.4102 18.7676 54.6328 18.9062 54.8125 19.0938C54.9961 19.2773 55.1348 19.5137 55.2285 19.8027C55.3223 20.0918 55.3691 20.4355 55.3691 20.834V25H54.2793V20.8223C54.2793 20.4668 54.2227 20.1914 54.1094 19.9961C54 19.7969 53.8438 19.6582 53.6406 19.5801C53.4414 19.498 53.2031 19.457 52.9258 19.457C52.6875 19.457 52.4766 19.498 52.293 19.5801C52.1094 19.6621 51.9551 19.7754 51.8301 19.9199C51.7051 20.0605 51.6094 20.2227 51.543 20.4062C51.4805 20.5898 51.4492 20.7852 51.4492 20.9922ZM58.0938 19.8789V27.4375H57.0039V18.6602H58L58.0938 19.8789ZM62.3652 21.7773V21.9004C62.3652 22.3613 62.3105 22.7891 62.2012 23.1836C62.0918 23.5742 61.9316 23.9141 61.7207 24.2031C61.5137 24.4922 61.2578 24.7168 60.9531 24.877C60.6484 25.0371 60.2988 25.1172 59.9043 25.1172C59.502 25.1172 59.1465 25.0508 58.8379 24.918C58.5293 24.7852 58.2676 24.5918 58.0527 24.3379C57.8379 24.084 57.666 23.7793 57.5371 23.4238C57.4121 23.0684 57.3262 22.668 57.2793 22.2227V21.5664C57.3262 21.0977 57.4141 20.6777 57.543 20.3066C57.6719 19.9355 57.8418 19.6191 58.0527 19.3574C58.2676 19.0918 58.5273 18.8906 58.832 18.7539C59.1367 18.6133 59.4883 18.543 59.8867 18.543C60.2852 18.543 60.6387 18.6211 60.9473 18.7773C61.2559 18.9297 61.5156 19.1484 61.7266 19.4336C61.9375 19.7188 62.0957 20.0605 62.2012 20.459C62.3105 20.8535 62.3652 21.293 62.3652 21.7773ZM61.2754 21.9004V21.7773C61.2754 21.4609 61.2422 21.1641 61.1758 20.8867C61.1094 20.6055 61.0059 20.3594 60.8652 20.1484C60.7285 19.9336 60.5527 19.7656 60.3379 19.6445C60.123 19.5195 59.8672 19.457 59.5703 19.457C59.2969 19.457 59.0586 19.5039 58.8555 19.5977C58.6562 19.6914 58.4863 19.8184 58.3457 19.9785C58.2051 20.1348 58.0898 20.3145 58 20.5176C57.9141 20.7168 57.8496 20.9238 57.8066 21.1387V22.6562C57.8848 22.9297 57.9941 23.1875 58.1348 23.4297C58.2754 23.668 58.4629 23.8613 58.6973 24.0098C58.9316 24.1543 59.2266 24.2266 59.582 24.2266C59.875 24.2266 60.127 24.166 60.3379 24.0449C60.5527 23.9199 60.7285 23.75 60.8652 23.5352C61.0059 23.3203 61.1094 23.0742 61.1758 22.7969C61.2422 22.5156 61.2754 22.2168 61.2754 21.9004ZM64.832 19.6562V25H63.748V18.6602H64.8027L64.832 19.6562ZM66.8125 18.625L66.8066 19.6328C66.7168 19.6133 66.6309 19.6016 66.5488 19.5977C66.4707 19.5898 66.3809 19.5859 66.2793 19.5859C66.0293 19.5859 65.8086 19.625 65.6172 19.7031C65.4258 19.7812 65.2637 19.8906 65.1309 20.0312C64.998 20.1719 64.8926 20.3398 64.8145 20.5352C64.7402 20.7266 64.6914 20.9375 64.668 21.168L64.3633 21.3438C64.3633 20.9609 64.4004 20.6016 64.4746 20.2656C64.5527 19.9297 64.6719 19.6328 64.832 19.375C64.9922 19.1133 65.1953 18.9102 65.4414 18.7656C65.6914 18.6172 65.9883 18.543 66.332 18.543C66.4102 18.543 66.5 18.5527 66.6016 18.5723C66.7031 18.5879 66.7734 18.6055 66.8125 18.625ZM70.3281 25.1172C69.8867 25.1172 69.4863 25.043 69.127 24.8945C68.7715 24.7422 68.4648 24.5293 68.207 24.2559C67.9531 23.9824 67.7578 23.6582 67.6211 23.2832C67.4844 22.9082 67.416 22.498 67.416 22.0527V21.8066C67.416 21.291 67.4922 20.832 67.6445 20.4297C67.7969 20.0234 68.0039 19.6797 68.2656 19.3984C68.5273 19.1172 68.8242 18.9043 69.1562 18.7598C69.4883 18.6152 69.832 18.543 70.1875 18.543C70.6406 18.543 71.0312 18.6211 71.3594 18.7773C71.6914 18.9336 71.9629 19.1523 72.1738 19.4336C72.3848 19.7109 72.541 20.0391 72.6426 20.418C72.7441 20.793 72.7949 21.2031 72.7949 21.6484V22.1348H68.0605V21.25H71.7109V21.168C71.6953 20.8867 71.6367 20.6133 71.5352 20.3477C71.4375 20.082 71.2812 19.8633 71.0664 19.6914C70.8516 19.5195 70.5586 19.4336 70.1875 19.4336C69.9414 19.4336 69.7148 19.4863 69.5078 19.5918C69.3008 19.6934 69.123 19.8457 68.9746 20.0488C68.8262 20.252 68.7109 20.5 68.6289 20.793C68.5469 21.0859 68.5059 21.4238 68.5059 21.8066V22.0527C68.5059 22.3535 68.5469 22.6367 68.6289 22.9023C68.7148 23.1641 68.8379 23.3945 68.998 23.5938C69.1621 23.793 69.3594 23.9492 69.5898 24.0625C69.8242 24.1758 70.0898 24.2324 70.3867 24.2324C70.7695 24.2324 71.0938 24.1543 71.3594 23.998C71.625 23.8418 71.8574 23.6328 72.0566 23.3711L72.7129 23.8926C72.5762 24.0996 72.4023 24.2969 72.1914 24.4844C71.9805 24.6719 71.7207 24.8242 71.4121 24.9414C71.1074 25.0586 70.7461 25.1172 70.3281 25.1172ZM75.1445 16V25H74.0605V16H75.1445ZM74.8867 21.5898L74.4355 21.5723C74.4395 21.1387 74.5039 20.7383 74.6289 20.3711C74.7539 20 74.9297 19.6777 75.1562 19.4043C75.3828 19.1309 75.6523 18.9199 75.9648 18.7715C76.2812 18.6191 76.6309 18.543 77.0137 18.543C77.3262 18.543 77.6074 18.5859 77.8574 18.6719C78.1074 18.7539 78.3203 18.8867 78.4961 19.0703C78.6758 19.2539 78.8125 19.4922 78.9062 19.7852C79 20.0742 79.0469 20.4277 79.0469 20.8457V25H77.957V20.834C77.957 20.502 77.9082 20.2363 77.8105 20.0371C77.7129 19.834 77.5703 19.6875 77.3828 19.5977C77.1953 19.5039 76.9648 19.457 76.6914 19.457C76.4219 19.457 76.1758 19.5137 75.9531 19.627C75.7344 19.7402 75.5449 19.8965 75.3848 20.0957C75.2285 20.2949 75.1055 20.5234 75.0156 20.7812C74.9297 21.0352 74.8867 21.3047 74.8867 21.5898ZM83.3008 25.1172C82.8594 25.1172 82.459 25.043 82.0996 24.8945C81.7441 24.7422 81.4375 24.5293 81.1797 24.2559C80.9258 23.9824 80.7305 23.6582 80.5938 23.2832C80.457 22.9082 80.3887 22.498 80.3887 22.0527V21.8066C80.3887 21.291 80.4648 20.832 80.6172 20.4297C80.7695 20.0234 80.9766 19.6797 81.2383 19.3984C81.5 19.1172 81.7969 18.9043 82.1289 18.7598C82.4609 18.6152 82.8047 18.543 83.1602 18.543C83.6133 18.543 84.0039 18.6211 84.332 18.7773C84.6641 18.9336 84.9355 19.1523 85.1465 19.4336C85.3574 19.7109 85.5137 20.0391 85.6152 20.418C85.7168 20.793 85.7676 21.2031 85.7676 21.6484V22.1348H81.0332V21.25H84.6836V21.168C84.668 20.8867 84.6094 20.6133 84.5078 20.3477C84.4102 20.082 84.2539 19.8633 84.0391 19.6914C83.8242 19.5195 83.5312 19.4336 83.1602 19.4336C82.9141 19.4336 82.6875 19.4863 82.4805 19.5918C82.2734 19.6934 82.0957 19.8457 81.9473 20.0488C81.7988 20.252 81.6836 20.5 81.6016 20.793C81.5195 21.0859 81.4785 21.4238 81.4785 21.8066V22.0527C81.4785 22.3535 81.5195 22.6367 81.6016 22.9023C81.6875 23.1641 81.8105 23.3945 81.9707 23.5938C82.1348 23.793 82.332 23.9492 82.5625 24.0625C82.7969 24.1758 83.0625 24.2324 83.3594 24.2324C83.7422 24.2324 84.0664 24.1543 84.332 23.998C84.5977 23.8418 84.8301 23.6328 85.0293 23.3711L85.6855 23.8926C85.5488 24.0996 85.375 24.2969 85.1641 24.4844C84.9531 24.6719 84.6934 24.8242 84.3848 24.9414C84.0801 25.0586 83.7188 25.1172 83.3008 25.1172ZM88.1172 20.0137V25H87.0332V18.6602H88.0586L88.1172 20.0137ZM87.8594 21.5898L87.4082 21.5723C87.4121 21.1387 87.4766 20.7383 87.6016 20.3711C87.7266 20 87.9023 19.6777 88.1289 19.4043C88.3555 19.1309 88.625 18.9199 88.9375 18.7715C89.2539 18.6191 89.6035 18.543 89.9863 18.543C90.2988 18.543 90.5801 18.5859 90.8301 18.6719C91.0801 18.7539 91.293 18.8867 91.4688 19.0703C91.6484 19.2539 91.7852 19.4922 91.8789 19.7852C91.9727 20.0742 92.0195 20.4277 92.0195 20.8457V25H90.9297V20.834C90.9297 20.502 90.8809 20.2363 90.7832 20.0371C90.6855 19.834 90.543 19.6875 90.3555 19.5977C90.168 19.5039 89.9375 19.457 89.6641 19.457C89.3945 19.457 89.1484 19.5137 88.9258 19.627C88.707 19.7402 88.5176 19.8965 88.3574 20.0957C88.2012 20.2949 88.0781 20.5234 87.9883 20.7812C87.9023 21.0352 87.8594 21.3047 87.8594 21.5898ZM97.3574 23.3184C97.3574 23.1621 97.3223 23.0176 97.252 22.8848C97.1855 22.748 97.0469 22.625 96.8359 22.5156C96.6289 22.4023 96.3164 22.3047 95.8984 22.2227C95.5469 22.1484 95.2285 22.0605 94.9434 21.959C94.6621 21.8574 94.4219 21.7344 94.2227 21.5898C94.0273 21.4453 93.877 21.2754 93.7715 21.0801C93.666 20.8848 93.6133 20.6562 93.6133 20.3945C93.6133 20.1445 93.668 19.9082 93.7773 19.6855C93.8906 19.4629 94.0488 19.2656 94.252 19.0938C94.459 18.9219 94.707 18.7871 94.9961 18.6895C95.2852 18.5918 95.6074 18.543 95.9629 18.543C96.4707 18.543 96.9043 18.6328 97.2637 18.8125C97.623 18.9922 97.8984 19.2324 98.0898 19.5332C98.2812 19.8301 98.377 20.1602 98.377 20.5234H97.293C97.293 20.3477 97.2402 20.1777 97.1348 20.0137C97.0332 19.8457 96.8828 19.707 96.6836 19.5977C96.4883 19.4883 96.248 19.4336 95.9629 19.4336C95.6621 19.4336 95.418 19.4805 95.2305 19.5742C95.0469 19.6641 94.9121 19.7793 94.8262 19.9199C94.7441 20.0605 94.7031 20.209 94.7031 20.3652C94.7031 20.4824 94.7227 20.5879 94.7617 20.6816C94.8047 20.7715 94.8789 20.8555 94.9844 20.9336C95.0898 21.0078 95.2383 21.0781 95.4297 21.1445C95.6211 21.2109 95.8652 21.2773 96.1621 21.3438C96.6816 21.4609 97.1094 21.6016 97.4453 21.7656C97.7812 21.9297 98.0312 22.1309 98.1953 22.3691C98.3594 22.6074 98.4414 22.8965 98.4414 23.2363C98.4414 23.5137 98.3828 23.7676 98.2656 23.998C98.1523 24.2285 97.9863 24.4277 97.7676 24.5957C97.5527 24.7598 97.2949 24.8887 96.9941 24.9824C96.6973 25.0723 96.3633 25.1172 95.9922 25.1172C95.4336 25.1172 94.9609 25.0176 94.5742 24.8184C94.1875 24.6191 93.8945 24.3613 93.6953 24.0449C93.4961 23.7285 93.3965 23.3945 93.3965 23.043H94.4863C94.502 23.3398 94.5879 23.5762 94.7441 23.752C94.9004 23.9238 95.0918 24.0469 95.3184 24.1211C95.5449 24.1914 95.7695 24.2266 95.9922 24.2266C96.2891 24.2266 96.5371 24.1875 96.7363 24.1094C96.9395 24.0312 97.0938 23.9238 97.1992 23.7871C97.3047 23.6504 97.3574 23.4941 97.3574 23.3184ZM101.043 18.6602V25H99.9531V18.6602H101.043ZM99.8711 16.9785C99.8711 16.8027 99.9238 16.6543 100.029 16.5332C100.139 16.4121 100.299 16.3516 100.51 16.3516C100.717 16.3516 100.875 16.4121 100.984 16.5332C101.098 16.6543 101.154 16.8027 101.154 16.9785C101.154 17.1465 101.098 17.291 100.984 17.4121C100.875 17.5293 100.717 17.5879 100.51 17.5879C100.299 17.5879 100.139 17.5293 100.029 17.4121C99.9238 17.291 99.8711 17.1465 99.8711 16.9785ZM104.711 24.0215L106.445 18.6602H107.553L105.273 25H104.547L104.711 24.0215ZM103.264 18.6602L105.051 24.0508L105.174 25H104.447L102.15 18.6602H103.264ZM111.145 25.1172C110.703 25.1172 110.303 25.043 109.943 24.8945C109.588 24.7422 109.281 24.5293 109.023 24.2559C108.77 23.9824 108.574 23.6582 108.438 23.2832C108.301 22.9082 108.232 22.498 108.232 22.0527V21.8066C108.232 21.291 108.309 20.832 108.461 20.4297C108.613 20.0234 108.82 19.6797 109.082 19.3984C109.344 19.1172 109.641 18.9043 109.973 18.7598C110.305 18.6152 110.648 18.543 111.004 18.543C111.457 18.543 111.848 18.6211 112.176 18.7773C112.508 18.9336 112.779 19.1523 112.99 19.4336C113.201 19.7109 113.357 20.0391 113.459 20.418C113.561 20.793 113.611 21.2031 113.611 21.6484V22.1348H108.877V21.25H112.527V21.168C112.512 20.8867 112.453 20.6133 112.352 20.3477C112.254 20.082 112.098 19.8633 111.883 19.6914C111.668 19.5195 111.375 19.4336 111.004 19.4336C110.758 19.4336 110.531 19.4863 110.324 19.5918C110.117 19.6934 109.939 19.8457 109.791 20.0488C109.643 20.252 109.527 20.5 109.445 20.793C109.363 21.0859 109.322 21.4238 109.322 21.8066V22.0527C109.322 22.3535 109.363 22.6367 109.445 22.9023C109.531 23.1641 109.654 23.3945 109.814 23.5938C109.979 23.793 110.176 23.9492 110.406 24.0625C110.641 24.1758 110.906 24.2324 111.203 24.2324C111.586 24.2324 111.91 24.1543 112.176 23.998C112.441 23.8418 112.674 23.6328 112.873 23.3711L113.529 23.8926C113.393 24.0996 113.219 24.2969 113.008 24.4844C112.797 24.6719 112.537 24.8242 112.229 24.9414C111.924 25.0586 111.562 25.1172 111.145 25.1172ZM122.564 22.8438C122.564 22.6445 122.533 22.4688 122.471 22.3164C122.412 22.1602 122.307 22.0195 122.154 21.8945C122.006 21.7695 121.799 21.6504 121.533 21.5371C121.271 21.4238 120.939 21.3086 120.537 21.1914C120.115 21.0664 119.734 20.9277 119.395 20.7754C119.055 20.6191 118.764 20.4414 118.521 20.2422C118.279 20.043 118.094 19.8145 117.965 19.5566C117.836 19.2988 117.771 19.0039 117.771 18.6719C117.771 18.3398 117.84 18.0332 117.977 17.752C118.113 17.4707 118.309 17.2266 118.562 17.0195C118.82 16.8086 119.127 16.6445 119.482 16.5273C119.838 16.4102 120.234 16.3516 120.672 16.3516C121.312 16.3516 121.855 16.4746 122.301 16.7207C122.75 16.9629 123.092 17.2812 123.326 17.6758C123.561 18.0664 123.678 18.4844 123.678 18.9297H122.553C122.553 18.6094 122.484 18.3262 122.348 18.0801C122.211 17.8301 122.004 17.6348 121.727 17.4941C121.449 17.3496 121.098 17.2773 120.672 17.2773C120.27 17.2773 119.938 17.3379 119.676 17.459C119.414 17.5801 119.219 17.7441 119.09 17.9512C118.965 18.1582 118.902 18.3945 118.902 18.6602C118.902 18.8398 118.939 19.0039 119.014 19.1523C119.092 19.2969 119.211 19.4316 119.371 19.5566C119.535 19.6816 119.742 19.7969 119.992 19.9023C120.246 20.0078 120.549 20.1094 120.9 20.207C121.385 20.3438 121.803 20.4961 122.154 20.6641C122.506 20.832 122.795 21.0215 123.021 21.2324C123.252 21.4395 123.422 21.6758 123.531 21.9414C123.645 22.2031 123.701 22.5 123.701 22.832C123.701 23.1797 123.631 23.4941 123.49 23.7754C123.35 24.0566 123.148 24.2969 122.887 24.4961C122.625 24.6953 122.311 24.8496 121.943 24.959C121.58 25.0645 121.174 25.1172 120.725 25.1172C120.33 25.1172 119.941 25.0625 119.559 24.9531C119.18 24.8438 118.834 24.6797 118.521 24.4609C118.213 24.2422 117.965 23.9727 117.777 23.6523C117.594 23.3281 117.502 22.9531 117.502 22.5273H118.627C118.627 22.8203 118.684 23.0723 118.797 23.2832C118.91 23.4902 119.064 23.6621 119.26 23.7988C119.459 23.9355 119.684 24.0371 119.934 24.1035C120.188 24.166 120.451 24.1973 120.725 24.1973C121.119 24.1973 121.453 24.1426 121.727 24.0332C122 23.9238 122.207 23.7676 122.348 23.5645C122.492 23.3613 122.564 23.1211 122.564 22.8438ZM128.857 23.5352V18.6602H129.947V25H128.91L128.857 23.5352ZM129.062 22.1992L129.514 22.1875C129.514 22.6094 129.469 23 129.379 23.3594C129.293 23.7148 129.152 24.0234 128.957 24.2852C128.762 24.5469 128.506 24.752 128.189 24.9004C127.873 25.0449 127.488 25.1172 127.035 25.1172C126.727 25.1172 126.443 25.0723 126.186 24.9824C125.932 24.8926 125.713 24.7539 125.529 24.5664C125.346 24.3789 125.203 24.1348 125.102 23.834C125.004 23.5332 124.955 23.1719 124.955 22.75V18.6602H126.039V22.7617C126.039 23.0469 126.07 23.2832 126.133 23.4707C126.199 23.6543 126.287 23.8008 126.396 23.9102C126.51 24.0156 126.635 24.0898 126.771 24.1328C126.912 24.1758 127.057 24.1973 127.205 24.1973C127.666 24.1973 128.031 24.1094 128.301 23.9336C128.57 23.7539 128.764 23.5137 128.881 23.2129C129.002 22.9082 129.062 22.5703 129.062 22.1992ZM132.684 19.8789V27.4375H131.594V18.6602H132.59L132.684 19.8789ZM136.955 21.7773V21.9004C136.955 22.3613 136.9 22.7891 136.791 23.1836C136.682 23.5742 136.521 23.9141 136.311 24.2031C136.104 24.4922 135.848 24.7168 135.543 24.877C135.238 25.0371 134.889 25.1172 134.494 25.1172C134.092 25.1172 133.736 25.0508 133.428 24.918C133.119 24.7852 132.857 24.5918 132.643 24.3379C132.428 24.084 132.256 23.7793 132.127 23.4238C132.002 23.0684 131.916 22.668 131.869 22.2227V21.5664C131.916 21.0977 132.004 20.6777 132.133 20.3066C132.262 19.9355 132.432 19.6191 132.643 19.3574C132.857 19.0918 133.117 18.8906 133.422 18.7539C133.727 18.6133 134.078 18.543 134.477 18.543C134.875 18.543 135.229 18.6211 135.537 18.7773C135.846 18.9297 136.105 19.1484 136.316 19.4336C136.527 19.7188 136.686 20.0605 136.791 20.459C136.9 20.8535 136.955 21.293 136.955 21.7773ZM135.865 21.9004V21.7773C135.865 21.4609 135.832 21.1641 135.766 20.8867C135.699 20.6055 135.596 20.3594 135.455 20.1484C135.318 19.9336 135.143 19.7656 134.928 19.6445C134.713 19.5195 134.457 19.457 134.16 19.457C133.887 19.457 133.648 19.5039 133.445 19.5977C133.246 19.6914 133.076 19.8184 132.936 19.9785C132.795 20.1348 132.68 20.3145 132.59 20.5176C132.504 20.7168 132.439 20.9238 132.396 21.1387V22.6562C132.475 22.9297 132.584 23.1875 132.725 23.4297C132.865 23.668 133.053 23.8613 133.287 24.0098C133.521 24.1543 133.816 24.2266 134.172 24.2266C134.465 24.2266 134.717 24.166 134.928 24.0449C135.143 23.9199 135.318 23.75 135.455 23.5352C135.596 23.3203 135.699 23.0742 135.766 22.7969C135.832 22.5156 135.865 22.2168 135.865 21.9004ZM139.422 19.8789V27.4375H138.332V18.6602H139.328L139.422 19.8789ZM143.693 21.7773V21.9004C143.693 22.3613 143.639 22.7891 143.529 23.1836C143.42 23.5742 143.26 23.9141 143.049 24.2031C142.842 24.4922 142.586 24.7168 142.281 24.877C141.977 25.0371 141.627 25.1172 141.232 25.1172C140.83 25.1172 140.475 25.0508 140.166 24.918C139.857 24.7852 139.596 24.5918 139.381 24.3379C139.166 24.084 138.994 23.7793 138.865 23.4238C138.74 23.0684 138.654 22.668 138.607 22.2227V21.5664C138.654 21.0977 138.742 20.6777 138.871 20.3066C139 19.9355 139.17 19.6191 139.381 19.3574C139.596 19.0918 139.855 18.8906 140.16 18.7539C140.465 18.6133 140.816 18.543 141.215 18.543C141.613 18.543 141.967 18.6211 142.275 18.7773C142.584 18.9297 142.844 19.1484 143.055 19.4336C143.266 19.7188 143.424 20.0605 143.529 20.459C143.639 20.8535 143.693 21.293 143.693 21.7773ZM142.604 21.9004V21.7773C142.604 21.4609 142.57 21.1641 142.504 20.8867C142.438 20.6055 142.334 20.3594 142.193 20.1484C142.057 19.9336 141.881 19.7656 141.666 19.6445C141.451 19.5195 141.195 19.457 140.898 19.457C140.625 19.457 140.387 19.5039 140.184 19.5977C139.984 19.6914 139.814 19.8184 139.674 19.9785C139.533 20.1348 139.418 20.3145 139.328 20.5176C139.242 20.7168 139.178 20.9238 139.135 21.1387V22.6562C139.213 22.9297 139.322 23.1875 139.463 23.4297C139.604 23.668 139.791 23.8613 140.025 24.0098C140.26 24.1543 140.555 24.2266 140.91 24.2266C141.203 24.2266 141.455 24.166 141.666 24.0449C141.881 23.9199 142.057 23.75 142.193 23.5352C142.334 23.3203 142.438 23.0742 142.504 22.7969C142.57 22.5156 142.604 22.2168 142.604 21.9004ZM144.789 21.9004V21.7656C144.789 21.3086 144.855 20.8848 144.988 20.4941C145.121 20.0996 145.312 19.7578 145.562 19.4688C145.812 19.1758 146.115 18.9492 146.471 18.7891C146.826 18.625 147.225 18.543 147.666 18.543C148.111 18.543 148.512 18.625 148.867 18.7891C149.227 18.9492 149.531 19.1758 149.781 19.4688C150.035 19.7578 150.229 20.0996 150.361 20.4941C150.494 20.8848 150.561 21.3086 150.561 21.7656V21.9004C150.561 22.3574 150.494 22.7812 150.361 23.1719C150.229 23.5625 150.035 23.9043 149.781 24.1973C149.531 24.4863 149.229 24.7129 148.873 24.877C148.521 25.0371 148.123 25.1172 147.678 25.1172C147.232 25.1172 146.832 25.0371 146.477 24.877C146.121 24.7129 145.816 24.4863 145.562 24.1973C145.312 23.9043 145.121 23.5625 144.988 23.1719C144.855 22.7812 144.789 22.3574 144.789 21.9004ZM145.873 21.7656V21.9004C145.873 22.2168 145.91 22.5156 145.984 22.7969C146.059 23.0742 146.17 23.3203 146.318 23.5352C146.471 23.75 146.66 23.9199 146.887 24.0449C147.113 24.166 147.377 24.2266 147.678 24.2266C147.975 24.2266 148.234 24.166 148.457 24.0449C148.684 23.9199 148.871 23.75 149.02 23.5352C149.168 23.3203 149.279 23.0742 149.354 22.7969C149.432 22.5156 149.471 22.2168 149.471 21.9004V21.7656C149.471 21.4531 149.432 21.1582 149.354 20.8809C149.279 20.5996 149.166 20.3516 149.014 20.1367C148.865 19.918 148.678 19.7461 148.451 19.6211C148.229 19.4961 147.967 19.4336 147.666 19.4336C147.369 19.4336 147.107 19.4961 146.881 19.6211C146.658 19.7461 146.471 19.918 146.318 20.1367C146.17 20.3516 146.059 20.5996 145.984 20.8809C145.91 21.1582 145.873 21.4531 145.873 21.7656ZM153.004 19.6562V25H151.92V18.6602H152.975L153.004 19.6562ZM154.984 18.625L154.979 19.6328C154.889 19.6133 154.803 19.6016 154.721 19.5977C154.643 19.5898 154.553 19.5859 154.451 19.5859C154.201 19.5859 153.98 19.625 153.789 19.7031C153.598 19.7812 153.436 19.8906 153.303 20.0312C153.17 20.1719 153.064 20.3398 152.986 20.5352C152.912 20.7266 152.863 20.9375 152.84 21.168L152.535 21.3438C152.535 20.9609 152.572 20.6016 152.646 20.2656C152.725 19.9297 152.844 19.6328 153.004 19.375C153.164 19.1133 153.367 18.9102 153.613 18.7656C153.863 18.6172 154.16 18.543 154.504 18.543C154.582 18.543 154.672 18.5527 154.773 18.5723C154.875 18.5879 154.945 18.6055 154.984 18.625ZM158.934 18.6602V19.4922H155.506V18.6602H158.934ZM156.666 17.1191H157.75V23.4297C157.75 23.6445 157.783 23.8066 157.85 23.916C157.916 24.0254 158.002 24.0977 158.107 24.1328C158.213 24.168 158.326 24.1855 158.447 24.1855C158.537 24.1855 158.631 24.1777 158.729 24.1621C158.83 24.1426 158.906 24.127 158.957 24.1152L158.963 25C158.877 25.0273 158.764 25.0527 158.623 25.0762C158.486 25.1035 158.32 25.1172 158.125 25.1172C157.859 25.1172 157.615 25.0645 157.393 24.959C157.17 24.8535 156.992 24.6777 156.859 24.4316C156.73 24.1816 156.666 23.8457 156.666 23.4238V17.1191Z" fill="#FAFAFA"/>
</g>
<g filter="url(#filter1_d_6422_156)">
<path d="M11.0461 36.7249L6.96045 53.6962L21.7318 44.8963L14.5033 43.0106L11.0461 36.7249Z" fill="black"/>
<path d="M7.28212 54.2362L6 55L6.3493 53.5491L10.435 36.5777L10.8148 35L11.5968 36.4219L14.9236 42.4706L21.8904 44.288L23.3442 44.6672L22.0535 45.4362L7.28212 54.2362Z" stroke="white" stroke-width="1.5"/>
</g>
<defs>
<filter id="filter0_d_6422_156" x="10" y="0" width="171" height="50" filterUnits="userSpaceOnUse" color-interpolation-filters="sRGB">
<feFlood flood-opacity="0" result="BackgroundImageFix"/>
<feColorMatrix in="SourceAlpha" type="matrix" values="0 0 0 0 0 0 0 0 0 0 0 0 0 0 0 0 0 0 127 0" result="hardAlpha"/>
<feOffset dy="4"/>
<feGaussianBlur stdDeviation="4"/>
<feComposite in2="hardAlpha" operator="out"/>
<feColorMatrix type="matrix" values="0 0 0 0 1 0 0 0 0 0.65098 0 0 0 0 0.160784 0 0 0 0.32 0"/>
<feBlend mode="normal" in2="BackgroundImageFix" result="effect1_dropShadow_6422_156"/>
<feBlend mode="normal" in="SourceGraphic" in2="effect1_dropShadow_6422_156" result="shape"/>
</filter>
<filter id="filter1_d_6422_156" x="0.854004" y="29.9419" width="28.4141" height="31.6138" filterUnits="userSpaceOnUse" color-interpolation-filters="sRGB">
<feFlood flood-opacity="0" result="BackgroundImageFix"/>
<feColorMatrix in="SourceAlpha" type="matrix" values="0 0 0 0 0 0 0 0 0 0 0 0 0 0 0 0 0 0 127 0" result="hardAlpha"/>
<feOffset dy="1"/>
<feGaussianBlur stdDeviation="2"/>
<feComposite in2="hardAlpha" operator="out"/>
<feColorMatrix type="matrix" values="0 0 0 0 0 0 0 0 0 0 0 0 0 0 0 0 0 0 0.32 0"/>
<feBlend mode="normal" in2="BackgroundImageFix" result="effect1_dropShadow_6422_156"/>
<feBlend mode="normal" in="SourceGraphic" in2="effect1_dropShadow_6422_156" result="shape"/>
</filter>
</defs>
</svg>
