<svg width="40" height="40" viewBox="0 0 40 40" fill="none" xmlns="http://www.w3.org/2000/svg">
<path d="M20 23.5156C21.9375 23.5156 23.5235 21.9375 23.5235 19.9922C23.5235 19.2266 23.2735 18.5156 22.8594 17.9375C22.2188 17.0547 21.1797 16.4688 20.0078 16.4688C18.836 16.4688 17.7969 17.0469 17.1563 17.9375C16.7422 18.5156 16.4922 19.2266 16.4922 19.9922C16.4844 21.9375 18.0625 23.5156 20 23.5156Z" fill="#5F82FF"/>
<path d="M27.6875 15.6953V12.7422V12.3047H27.25L24.2969 12.3125L24.3125 15.7031L27.6875 15.6953Z" fill="#5F82FF"/>
<path d="M25.4688 20C25.4688 23.0156 23.0156 25.4687 20 25.4687C16.9844 25.4687 14.5312 23.0156 14.5312 20C14.5312 19.2734 14.6797 18.5781 14.9375 17.9453H11.9531V26.1328C11.9531 27.1875 12.8125 28.0469 13.8672 28.0469H26.1328C27.1875 28.0469 28.0469 27.1875 28.0469 26.1328V17.9453H25.0625C25.3281 18.5781 25.4688 19.2734 25.4688 20Z" fill="#5F82FF"/>
<path d="M20 0C8.95312 0 0 8.95312 0 20C0 31.0469 8.95312 40 20 40C31.0469 40 40 31.0469 40 20C40 8.95312 31.0469 0 20 0ZM30 17.9453V26.1328C30 28.2656 28.2656 30 26.1328 30H13.8672C11.7344 30 10 28.2656 10 26.1328V17.9453V13.8594C10 11.7266 11.7344 9.99219 13.8672 9.99219H26.1328C28.2656 9.99219 30 11.7266 30 13.8594V17.9453Z" fill="#5F82FF"/>
</svg>
