<svg width="40" height="40" viewBox="0 0 40 40" fill="none" xmlns="http://www.w3.org/2000/svg">
<path d="M21.25 29.375C21.4158 29.375 21.5747 29.3092 21.6919 29.1919C21.8092 29.0747 21.875 28.9158 21.875 28.75V26.875H23.75C24.7213 26.8554 25.647 26.4596 26.3323 25.7709C27.0175 25.0823 27.4088 24.1547 27.4237 23.1833C27.4386 22.2119 27.076 21.2727 26.4122 20.5634C25.7484 19.8541 24.8352 19.4301 23.865 19.3806C24.3062 18.8935 24.6113 18.2988 24.7496 17.6563C24.8879 17.0137 24.8545 16.3461 24.6527 15.7206C24.451 15.0951 24.0881 14.5338 23.6004 14.0932C23.1128 13.6526 22.5177 13.3482 21.875 13.2106V11.25C21.875 11.0842 21.8092 10.9253 21.6919 10.8081C21.5747 10.6908 21.4158 10.625 21.25 10.625C21.0842 10.625 20.9253 10.6908 20.8081 10.8081C20.6908 10.9253 20.625 11.0842 20.625 11.25V13.125H19.375V11.25C19.375 11.0842 19.3092 10.9253 19.1919 10.8081C19.0747 10.6908 18.9158 10.625 18.75 10.625C18.5842 10.625 18.4253 10.6908 18.3081 10.8081C18.1908 10.9253 18.125 11.0842 18.125 11.25V13.125H14.375C14.2092 13.125 14.0503 13.1908 13.9331 13.3081C13.8158 13.4253 13.75 13.5842 13.75 13.75C13.75 13.9158 13.8158 14.0747 13.9331 14.1919C14.0503 14.3092 14.2092 14.375 14.375 14.375H16.25V25.625H14.375C14.2092 25.625 14.0503 25.6908 13.9331 25.8081C13.8158 25.9253 13.75 26.0842 13.75 26.25C13.75 26.4158 13.8158 26.5747 13.9331 26.6919C14.0503 26.8092 14.2092 26.875 14.375 26.875H18.125V28.75C18.125 28.9158 18.1908 29.0747 18.3081 29.1919C18.4253 29.3092 18.5842 29.375 18.75 29.375C18.9158 29.375 19.0747 29.3092 19.1919 29.1919C19.3092 29.0747 19.375 28.9158 19.375 28.75V26.875H20.625V28.75C20.625 28.9158 20.6908 29.0747 20.8081 29.1919C20.9253 29.3092 21.0842 29.375 21.25 29.375ZM23.5831 16.875C23.5831 17.538 23.3197 18.1739 22.8509 18.6428C22.3821 19.1116 21.7462 19.375 21.0831 19.375H17.5V14.375H21.0831C21.7462 14.375 22.3821 14.6384 22.8509 15.1072C23.3197 15.5761 23.5831 16.212 23.5831 16.875ZM17.5 20.625H23.75C24.413 20.625 25.0489 20.8884 25.5178 21.3572C25.9866 21.8261 26.25 22.462 26.25 23.125C26.25 23.788 25.9866 24.4239 25.5178 24.8928C25.0489 25.3616 24.413 25.625 23.75 25.625H17.5V20.625Z" fill="#5F82FF"/>
<path d="M20 1.25C16.2916 1.25 12.6665 2.34967 9.58307 4.40994C6.49964 6.47022 4.09641 9.39857 2.67727 12.8247C1.25812 16.2508 0.886812 20.0208 1.61028 23.6579C2.33376 27.2951 4.11952 30.636 6.74176 33.2583C9.36399 35.8805 12.7049 37.6663 16.3421 38.3897C19.9792 39.1132 23.7492 38.7419 27.1753 37.3227C30.6014 35.9036 33.5298 33.5004 35.5901 30.4169C37.6503 27.3335 38.75 23.7084 38.75 20C38.7444 15.0289 36.7671 10.263 33.252 6.74796C29.737 3.23287 24.9711 1.25562 20 1.25ZM20 37.5C16.5388 37.5 13.1554 36.4736 10.2775 34.5507C7.39967 32.6278 5.15665 29.8947 3.83212 26.697C2.50758 23.4993 2.16102 19.9806 2.83627 16.5859C3.51151 13.1913 5.17822 10.073 7.62564 7.62563C10.0731 5.17821 13.1913 3.5115 16.5859 2.83626C19.9806 2.16102 23.4993 2.50757 26.697 3.83211C29.8947 5.15664 32.6278 7.39966 34.5507 10.2775C36.4737 13.1554 37.5 16.5388 37.5 20C37.4947 24.6397 35.6493 29.0878 32.3685 32.3685C29.0878 35.6493 24.6397 37.4947 20 37.5Z" fill="#5F82FF"/>
<path d="M31.0346 10.4956C31.0346 10.1035 30.9183 9.72023 30.7005 9.39421C30.4826 9.06819 30.173 8.81408 29.8108 8.66403C29.4485 8.51398 29.0499 8.47472 28.6653 8.55122C28.2808 8.62771 27.9275 8.81653 27.6502 9.09378C27.373 9.37104 27.1842 9.72429 27.1077 10.1089C27.0312 10.4934 27.0704 10.892 27.2205 11.2543C27.3705 11.6165 27.6246 11.9262 27.9507 12.144C28.2767 12.3619 28.66 12.4781 29.0521 12.4781C29.3239 12.478 29.5927 12.4214 29.8415 12.3119C31.6002 14.5638 32.534 17.3504 32.4874 20.2074C32.4408 23.0643 31.4165 25.819 29.5853 28.0123C27.754 30.2057 25.2264 31.7052 22.4237 32.261C19.621 32.8168 16.7124 32.3954 14.1827 31.0669C14.0362 30.9908 13.8655 30.9757 13.708 31.025C13.5504 31.0742 13.4187 31.1839 13.3417 31.3299C13.2647 31.4759 13.2486 31.6465 13.2969 31.8044C13.3452 31.9622 13.454 32.0946 13.5996 32.1725C16.3893 33.6436 19.6001 34.1103 22.6931 33.4943C25.7862 32.8783 28.5732 31.2171 30.5865 28.7895C32.5997 26.3619 33.7166 23.3156 33.7497 20.162C33.7828 17.0084 32.7302 13.9394 30.7683 11.47C30.9406 11.174 31.0323 10.8381 31.0346 10.4956ZM28.3196 10.4956C28.3196 10.3507 28.3625 10.2091 28.443 10.0887C28.5235 9.96821 28.6379 9.87432 28.7718 9.81888C28.9056 9.76344 29.0529 9.74893 29.195 9.7772C29.3371 9.80546 29.4676 9.87523 29.57 9.97767C29.6725 10.0801 29.7422 10.2106 29.7705 10.3527C29.7988 10.4948 29.7843 10.6421 29.7288 10.7759C29.6734 10.9098 29.5795 11.0242 29.459 11.1047C29.3386 11.1852 29.197 11.2281 29.0521 11.2281C28.9559 11.2281 28.8606 11.2092 28.7718 11.1724C28.6829 11.1356 28.6021 11.0816 28.5341 11.0136C28.4661 10.9456 28.4122 10.8648 28.3753 10.7759C28.3385 10.6871 28.3196 10.5918 28.3196 10.4956Z" fill="#5F82FF"/>
<path d="M10.4955 27.5219C10.3499 27.5228 10.2048 27.5398 10.063 27.5725C8.39344 25.4019 7.4919 22.7384 7.49984 20C7.50364 16.686 8.82183 13.5088 11.1652 11.1654C13.5086 8.82202 16.6858 7.50383 19.9998 7.50003C21.8278 7.49522 23.6342 7.89521 25.2892 8.67128C25.4394 8.74156 25.6113 8.74931 25.7672 8.69281C25.9231 8.63632 26.0502 8.52021 26.1205 8.37003C26.1907 8.21985 26.1985 8.0479 26.142 7.89201C26.0855 7.73612 25.9694 7.60906 25.8192 7.53878C23.0435 6.23956 19.9132 5.9054 16.9258 6.58943C13.9383 7.27345 11.2653 8.9364 9.33145 11.314C7.39761 13.6915 6.31396 16.6473 6.25274 19.7114C6.19153 22.7755 7.15626 25.7721 8.99359 28.225C8.68532 28.5802 8.51477 29.0341 8.51296 29.5044C8.51296 29.8965 8.62924 30.2798 8.84708 30.6058C9.06492 30.9318 9.37454 31.1859 9.73679 31.336C10.099 31.486 10.4977 31.5253 10.8822 31.4488C11.2668 31.3723 11.62 31.1835 11.8973 30.9062C12.1746 30.629 12.3634 30.2757 12.4399 29.8912C12.5164 29.5066 12.4771 29.108 12.3271 28.7457C12.177 28.3835 11.9229 28.0739 11.5969 27.856C11.2709 27.6382 10.8876 27.5219 10.4955 27.5219ZM10.4955 30.2369C10.3506 30.2369 10.209 30.1939 10.0885 30.1135C9.96805 30.033 9.87416 29.9186 9.81872 29.7847C9.76328 29.6509 9.74878 29.5036 9.77704 29.3615C9.8053 29.2194 9.87507 29.0889 9.97751 28.9864C10.08 28.884 10.2105 28.8142 10.3526 28.786C10.4947 28.7577 10.6419 28.7722 10.7758 28.8277C10.9096 28.8831 11.024 28.977 11.1045 29.0974C11.185 29.2179 11.228 29.3595 11.228 29.5044C11.228 29.6006 11.209 29.6958 11.1722 29.7847C11.1354 29.8736 11.0814 29.9543 11.0134 30.0224C10.9454 30.0904 10.8647 30.1443 10.7758 30.1811C10.6869 30.218 10.5917 30.2369 10.4955 30.2369Z" fill="#5F82FF"/>
</svg>
