<svg width="40" height="40" viewBox="0 0 40 40" fill="none" xmlns="http://www.w3.org/2000/svg">
<path d="M20 0C8.95312 0 0 8.95312 0 20C0 31.0469 8.95312 40 20 40C31.0469 40 40 31.0469 40 20C40 8.95312 31.0469 0 20 0ZM27.9844 16.8906C27.9922 17.0625 27.9922 17.2422 27.9922 17.4219C27.9922 22.8516 23.8594 29.1172 16.2969 29.1172C13.9766 29.1172 11.8125 28.4375 10 27.2734C10.3203 27.3125 10.6484 27.3281 10.9844 27.3281C12.9063 27.3281 14.6797 26.6719 16.0859 25.5703C14.2891 25.5391 12.7656 24.3516 12.25 22.7188C12.5 22.7656 12.7578 22.7891 13.0234 22.7891C13.3984 22.7891 13.7656 22.7422 14.1094 22.6406C12.2266 22.2656 10.8125 20.6016 10.8125 18.6094V18.5625C11.3672 18.8672 12 19.0547 12.6719 19.0781C11.5703 18.3438 10.8438 17.0781 10.8438 15.6562C10.8438 14.9062 11.0469 14.1953 11.3984 13.5859C13.4297 16.0781 16.4531 17.7109 19.8672 17.8828C19.7969 17.5859 19.7578 17.2734 19.7578 16.9453C19.7578 14.6797 21.6016 12.8359 23.8672 12.8359C25.0469 12.8359 26.1172 13.3359 26.8672 14.1328C27.8047 13.9453 28.6797 13.6094 29.4766 13.1328C29.1719 14.0938 28.5156 14.8984 27.6719 15.4063C28.5 15.3047 29.2969 15.0859 30.0312 14.7578C29.4844 15.5859 28.7891 16.3047 27.9844 16.8906Z" fill="#5F82FF"/>
</svg>
